<svg xmlns="http://www.w3.org/2000/svg" width="253.914" height="77.979" viewBox="0 0 254 78"><g data-name="グループ 138" fill="#f36586"><path data-name="パス 181" d="M0 .77h16.343l8.683 25.872h.111L34.216.77h15.719v38.269H39.584l.172-29.386h-.121L29.554 39.039h-9.688L10.237 9.653h-.114l.228 29.386H0z"/><path data-name="パス 182" d="M80.486 24.367H70.058l5.37-15.73h.119zM54.027 39.039h10.727l3.12-8.186h14.868l2.952 8.186h11.579L82.007.768H69.065z"/><path data-name="パス 183" d="M187.104 25.21c0 10.465-8.456 14.465-18.789 14.465s-18.787-4-18.787-14.465V.769h11.276v22.9c0 6.612 2.125 9.319 7.511 9.319s7.515-2.707 7.515-9.319V.769h11.273z"/><path data-name="長方形 1571" d="M195.172.769h11.746v38.269h-11.746z"/><path data-name="パス 184" d="M237.129 24.367h-10.425l5.366-15.73h.125zM210.672 39.04h10.727l3.121-8.186h14.871l2.947 8.186h11.577L238.653.769h-12.941z"/><path data-name="パス 185" d="M111.265 18.351c0-6.957 2.748-12.922 9.422-12.922 6.826 0 10.7 7.337 10.7 16.661 0 4.64-1.032 12.637-9.18 12.637-8.492 0-10.944-9.986-10.944-16.375M143.899 42.8a34.133 34.133 0 01-10.544 1.508c-7.311 0-12.664-1.956-18.881-2.57v-.109c20.783-1.522 29.653-8.578 29.653-22.077 0-10.822-8.592-19.551-22.053-19.551-13.122 0-23.551 8.841-23.551 20.386 0 11.931 9.054 19 19.808 19 .862 0 1.554-.057 2.185-.111s1.211-.176 1.845-.233l.112.112c-3.566 1.844-8.978 1.016-15.527 1.463l-2.981 9.01a17.9 17.9 0 013.726-.445c9.721 0 14.384 3.328 24.862 3.328a22.87 22.87 0 008.539-1.328z"/></g><g data-name="グループ 139" fill="#f36586"><path data-name="パス 186" d="M76.608 77.979c-7.135 0-11.1-4.337-11.1-10.8s3.964-10.8 11.1-10.8 11.1 4.337 11.1 10.8-3.963 10.8-11.1 10.8m0-1.723c6.2 0 8.685-4.539 8.685-9.076s-2.482-9.077-8.685-9.077-8.686 4.538-8.686 9.077 2.482 9.076 8.686 9.076"/><path data-name="パス 187" d="M93.397 56.811h2.551l13.717 18.238h.069V56.811h2.24v20.737h-2.826L95.706 59.625h-.069v17.923h-2.241z"/><path data-name="パス 188" d="M118.77 77.548V56.811h2.24v19.013h12.51v1.724z"/><path data-name="長方形 1572" d="M138.385 56.724h2.24v20.824h-2.24z"/><path data-name="パス 189" d="M147.662 56.811h2.55l13.718 18.238h.069V56.811h2.24v20.737h-2.826L149.97 59.625h-.069v17.923h-2.239z"/><path data-name="パス 190" d="M173.102 77.548V56.811h14.785v1.723h-12.544v7.439h12.063v1.723h-12.063v8.128h13.063v1.724z"/></g></svg>
