<svg id="グループ_3" data-name="グループ 3" xmlns="http://www.w3.org/2000/svg" width="280" height="96.844" viewBox="0 0 280 96.844"><defs><style>.cls-1{fill:#727272;fill-rule:evenodd}</style></defs><path id="LOGO" class="cls-1" d="M638.918 263.493h7.1v-1.654h-7.1v1.654zm5.857-29.482h-5.857v1.655h5.857v2.934h1.241v-7.514h-1.241v2.93zm-5.857 18.965h3.229l-3.229 4.152v2.472s3.37-4.332 3.689-4.739l3.409 4.368v-2.47l-2.953-3.787h2.953v-1.652h-7.1v1.656zm0-4.752h1.382v-5.716h1.66v5.459h1.382v-5.459h1.295v5.716h1.38v-7.371h-7.1v7.371zm-8.282 1.087h-27.144v-3.849h27.076a3.115 3.115 0 1 0 0-6.229h-27.076v-4.856h21.475a3.116 3.116 0 1 0 0-6.231h-21.475v-5.06h24.479a3.115 3.115 0 0 0 0-6.229h-18.484l8.727-6.857a3.111 3.111 0 1 0-3.847-4.891L600.374 216.1l-13.993-10.99a3.112 3.112 0 1 0-3.849 4.89l8.727 6.856h-18.478a3.115 3.115 0 1 0 0 6.229h24.479v5.06h-21.478a3.116 3.116 0 0 0 0 6.231h21.478v4.856h-27.08a3.115 3.115 0 1 0 0 6.229h27.08v3.849h-27.15a3.114 3.114 0 0 0 0 6.227h26.352a19.2 19.2 0 0 1-5.209 6.718c-3.427 2.955-9.718 6.839-20.242 8.559a3.115 3.115 0 0 0 1.009 6.148c11.95-1.958 19.27-6.514 23.3-9.993a27.59 27.59 0 0 0 5.051-5.653 27.6 27.6 0 0 0 5.052 5.653c4.03 3.479 11.348 8.035 23.3 9.993a3.115 3.115 0 0 0 1-6.148c-10.525-1.72-16.813-5.6-20.241-8.559a19.259 19.259 0 0 1-5.209-6.718h26.35a3.114 3.114 0 1 0 0-6.227m74.429-32.956h-16.11l8.1-6.575a3.113 3.113 0 0 0-3.932-4.828l-20.465 16.6v-5.239h-8.746c4-3.4 8.041-6.843 8.041-6.843a3.114 3.114 0 1 0-4.042-4.739l-16.057 13.676v45.5h20.8v-37.287a3.114 3.114 0 0 0 3.783-.111l4.843-3.929h20.667v34.365c-1.807 1.638-15.7 14.195-15.7 14.195a3.114 3.114 0 0 0 4.178 4.619l16.733-15.12a3.115 3.115 0 0 0 1.025-2.31v-38.861a3.114 3.114 0 0 0-3.118-3.112m-38.622 41.319h-8.343v-15.542h8.343v15.542zm0-21.771h-8.343v-14.617a151.16 151.16 0 0 1 1.4-1.193 3.106 3.106 0 0 0 3.038 2.457h3.906v13.35zm23.67 2.597a4.686 4.686 0 1 0-4.683 4.683 4.693 4.693 0 0 0 4.683-4.683m-51.172-18.231c0 1.98.816 3.158 2.174 3.158a1.855 1.855 0 0 0 1.757-1.22 1.9 1.9 0 0 0 1.242.5c1.168 0 1.926-1.071 1.926-2.724v-3.523h-7.1v3.8zm4.294-2.118h1.532v1.868a.817.817 0 1 1-1.532 0v-1.868zm-3.027 0h1.825v2.282a.993.993 0 1 1-1.825 0v-2.282zm-1.275 10.086h7.1v-1.657h-7.1v1.654zm81.75 35.361a4.683 4.683 0 1 0 4.685 4.684 4.689 4.689 0 0 0-4.685-4.684m112.31-31.626a13.893 13.893 0 0 0-10.523 4.878 13.879 13.879 0 0 0-24.4 7.946 20.446 20.446 0 0 0-39.647 7.021 20.1 20.1 0 0 0 .316 3.447 3.274 3.274 0 0 0-.3.543 13.536 13.536 0 0 1-8.5 8.749 13.473 13.473 0 1 1-8.74-25.49 13.552 13.552 0 0 1 12.089 1.7 3.487 3.487 0 0 0 3.987-5.722 20.54 20.54 0 0 0-18.339-2.569 20.444 20.444 0 1 0 23.28 31.152 20.415 20.415 0 0 0 35.736-4.462v8.3a3.489 3.489 0 0 0 6.978 0v-21.5a7.029 7.029 0 0 1 14.058 0v21.5a3.489 3.489 0 0 0 6.978 0v-21.5a7.03 7.03 0 0 1 14.06 0v21.5a3.488 3.488 0 0 0 6.976 0v-21.5a14.015 14.015 0 0 0-14-13.994m-54.121 33.319a13.474 13.474 0 1 1 13.481-13.473 13.492 13.492 0 0 1-13.481 13.473" transform="translate(-567 -180.156)"/><path id="_肌_心_体_のキレイは自分で磨く" data-name="「肌・心・体」のキレイは自分で磨く" class="cls-1" d="M568.934 189.22h1.037v-8.1h3.389v-.97h-4.426v9.07zm8.788-1.836c.014-.561.028-1.093.028-1.57v-.785h2.074v2.355h-2.1zm2.1-5.622v2.3h-2.072v-2.3h2.074zm.98-.968h-4.02v5.02c0 2.061-.07 4.823-1.037 6.785a3.338 3.338 0 0 1 .869.519 13.811 13.811 0 0 0 1.05-4.738h2.158v3.336a.223.223 0 0 1-.253.267c-.168 0-.728.014-1.372-.014a3.755 3.755 0 0 1 .322 1 4.326 4.326 0 0 0 1.807-.21.968.968 0 0 0 .476-1.038v-10.927zm6.248 11.062a.381.381 0 0 1-.225-.07 1.608 1.608 0 0 1-.084-.771v-10.221h-4.37v5.889c0 1.907-.112 4.262-1.359 5.846a4.743 4.743 0 0 1 .869.631c1.316-1.71 1.512-4.444 1.512-6.477v-4.893h2.326v9.141c0 1.178.07 1.416.28 1.627a1.3 1.3 0 0 0 .8.28h.687a1.394 1.394 0 0 0 .742-.2 1.141 1.141 0 0 0 .364-.758 20.149 20.149 0 0 0 .126-2.033 2.348 2.348 0 0 1-.84-.462c0 .883-.014 1.584-.042 1.879a.759.759 0 0 1-.14.49.357.357 0 0 1-.28.1h-.364zm6.016-5.173a1.485 1.485 0 1 0 1.485-1.486 1.477 1.477 0 0 0-1.483 1.486zm17.166-1.388a15.536 15.536 0 0 1 2.522 5.2l1.022-.49a14.839 14.839 0 0 0-2.633-5.174zm-8.124 0a10.574 10.574 0 0 1-1.583 5.047l.939.575a12.175 12.175 0 0 0 1.653-5.425zm2.438-4.15a21.244 21.244 0 0 1 4.79 2.426l.658-.912a23.849 23.849 0 0 0-4.79-2.313zm-.1 3.014v7c0 1.36.407 1.739 1.891 1.739h2.718c1.513 0 1.849-.771 1.989-3.407a2.627 2.627 0 0 1-.967-.476c-.112 2.425-.238 2.929-1.078 2.929h-2.578c-.77 0-.924-.125-.924-.77v-7.011h-1.051zm13.819 2.524a1.485 1.485 0 1 0 1.485-1.486 1.477 1.477 0 0 0-1.482 1.486zm10.639-6.351a16.3 16.3 0 0 1-3.068 5.566 7.639 7.639 0 0 1 .6 1.024 15.05 15.05 0 0 0 1.19-1.613v7.753h1v-9.477a23.828 23.828 0 0 0 1.247-2.959zm9.749 3.771v-1.009h-4.174v-2.762h-1.008v2.762h-3.923v1.006h3.292a14.258 14.258 0 0 1-3.838 5.959 5.015 5.015 0 0 1 .756.785 16.159 16.159 0 0 0 3.713-6.071v4.767h-2.281v.96h2.284v2.51h1.008v-2.51h2.255v-.953h-2.255v-4.865a15.791 15.791 0 0 0 3.67 6.141 3.683 3.683 0 0 1 .784-.827 13.977 13.977 0 0 1-3.782-5.889h3.5zm7 .042h-1.037v8.1h-3.39v.967h4.427v-9.071zm7.293 5.9c-.6 0-1.415-.771-1.415-2.524a4.839 4.839 0 0 1 4.287-4.486 22.408 22.408 0 0 1-.771 3.743c-.715 2.344-1.486 3.27-2.102 3.27zm3.656 2.327c3.306-.435 5.225-2.383 5.225-5.3a5.039 5.039 0 0 0-5.323-5.1 5.926 5.926 0 0 0-6.079 5.65c0 2.286 1.246 3.716 2.479 3.716 1.289 0 2.395-1.473 3.25-4.318a29.381 29.381 0 0 0 .826-4 3.846 3.846 0 0 1 3.684 4.023 4.16 4.16 0 0 1-3.516 4.108 8.838 8.838 0 0 1-1.19.169zm20.288-5.972c-.294.085-.687.169-1.219.281-.7.126-2.031.351-3.46.589l-.56-2.818c1.345-.211 2.619-.421 3.264-.519.364-.056.8-.112 1.008-.14l-.238-1.178a8.751 8.751 0 0 1-.994.239c-.589.112-1.877.322-3.236.547-.168-.786-.266-1.36-.294-1.515-.042-.308-.112-.7-.126-.967l-1.261.224a6.574 6.574 0 0 1 .266.953c.042.169.14.715.294 1.473-1.316.21-2.535.392-3.081.448-.449.056-.813.084-1.163.1l.238 1.261a10.441 10.441 0 0 1 1.135-.238c.532-.1 1.751-.294 3.081-.5l.561 2.818c-1.6.252-3.124.491-3.824.589-.365.056-.911.112-1.233.126l.252 1.22a10.788 10.788 0 0 1 1.233-.253 414.42 414.42 0 0 1 3.768-.645c.266 1.389.49 2.524.546 2.833.1.42.14.841.21 1.318l1.275-.239c-.126-.392-.238-.869-.336-1.276-.07-.322-.295-1.444-.575-2.818 1.373-.21 2.676-.42 3.446-.547.519-.084.967-.154 1.261-.182zm6.981 5.861a1.99 1.99 0 0 1 .589-.252 16.3 16.3 0 0 0 8.194-5l-.63-.982a15.116 15.116 0 0 1-7.663 4.781v-7.949a9.066 9.066 0 0 1 .1-1.276h-1.373a10.807 10.807 0 0 1 .112 1.276v8.019a1.546 1.546 0 0 1-.14.687zm22.614-11.2a15.425 15.425 0 0 1-3.684 3.1 22.089 22.089 0 0 1-6.261 2.58l.644 1.094a28.035 28.035 0 0 0 5.267-2.187v5.3a13.012 13.012 0 0 1-.084 1.5h1.373a10.586 10.586 0 0 1-.084-1.5v-6a22.08 22.08 0 0 0 3.754-3.043zm6.645.182a6.138 6.138 0 0 1-.1.982 43.3 43.3 0 0 0-.63 5.832 16.813 16.813 0 0 0 .532 4.4l1-.085c-.014-.14-.042-.336-.042-.476a2.381 2.381 0 0 1 .07-.617 30.058 30.058 0 0 1 .98-3.071l-.588-.462c-.238.56-.56 1.387-.784 2.018a12.267 12.267 0 0 1-.126-1.892 34.134 34.134 0 0 1 .686-5.594 6.628 6.628 0 0 1 .238-.94zm7.074 8.608a1.3 1.3 0 0 1-1.513 1.5c-.994 0-1.667-.393-1.667-1.08 0-.645.715-1.107 1.751-1.107a4.337 4.337 0 0 1 1.415.224c.01.169.01.337.01.463zm3.782.688a9.464 9.464 0 0 0-2.731-1.809c-.056-1.164-.154-2.552-.168-3.94.826-.056 1.639-.14 2.395-.266v-1.094a17.515 17.515 0 0 1-2.395.323c.014-.645.028-1.29.042-1.669a7.873 7.873 0 0 1 .084-.827h-1.275a5.691 5.691 0 0 1 .07.841v1.725c-.434.014-.868.028-1.3.028a21.707 21.707 0 0 1-2.353-.126v1.065c.813.042 1.541.084 2.325.084.449 0 .883-.013 1.331-.027.014 1.149.1 2.481.14 3.547a6.117 6.117 0 0 0-1.289-.127c-1.82 0-2.857.953-2.857 2.118 0 1.233 1.022 2 2.885 2a2.1 2.1 0 0 0 2.41-2.271v-.253a10.575 10.575 0 0 1 2.087 1.585zm5.525.8v-2.075h7.466v2.075h-7.466zm7.466-5.09v2.033h-7.466v-2.033h7.466zm0-3.07v2.089h-7.466v-2.089h7.466zm-3.95-1c.238-.533.49-1.164.7-1.767l-1.19-.154a17.933 17.933 0 0 1-.547 1.921h-3.516V193.1h1.037v-.785h7.466v.715h1.079v-10.847h-5.029zm13.089-1.613a11.8 11.8 0 0 1-4.189 5.258 7 7 0 0 1 .883.813 14.44 14.44 0 0 0 4.4-5.762zm-1.919 4.977v1.01h2.857c-.322 2.355-1.093 4.584-4.384 5.678a4.157 4.157 0 0 1 .672.911c3.558-1.29 4.454-3.827 4.819-6.589h3.614c-.168 3.533-.365 4.935-.729 5.285a.665.665 0 0 1-.588.182c-.322 0-1.191-.013-2.1-.1a2.539 2.539 0 0 1 .35 1.038 20.074 20.074 0 0 0 2.2.028 1.4 1.4 0 0 0 1.079-.491c.476-.532.686-2.145.882-6.449.014-.14.028-.5.028-.5h-8.7zm5.771-4.612a18.529 18.529 0 0 0 4.342 5.58 5.369 5.369 0 0 1 .855-.926 14.828 14.828 0 0 1-4.217-5.047zm17.235 3.8l-.715.309a12.9 12.9 0 0 1 1.149 1.977l.714-.337a16.668 16.668 0 0 0-1.151-1.946zm1.526-.589l-.7.323a12.541 12.541 0 0 1 1.191 1.948l.728-.336a21 21 0 0 0-1.219-1.932zm-10.617-1.36l.126 1.234c1.5-.308 5.281-.673 6.5-.813a5.616 5.616 0 0 0-2.577 4.683c0 3.1 2.927 4.472 5.491 4.584l.406-1.178c-2.255-.084-4.776-.939-4.776-3.644a4.854 4.854 0 0 1 3.165-4.389 11.5 11.5 0 0 1 2.718-.224v-1.122c-.925.043-2.227.113-3.74.238-2.55.225-5.169.477-6.08.561-.267.031-.701.06-1.233.073zm25.275 4.192v-1.906a9.075 9.075 0 0 0 1.821 1.612 3.32 3.32 0 0 1 .6-.645 7.632 7.632 0 0 1-2.115-1.654h1.835v-.772h-2.143v-1h-.854v1h-1.821v.772h1.512a6.222 6.222 0 0 1-2.129 1.724 3.342 3.342 0 0 1 .547.631 7.142 7.142 0 0 0 1.891-1.654v1.892h.854zm-4.987-.055v-1.669c.491.364 1.107.827 1.359 1.065l.546-.672c-.308-.211-1.5-.926-1.9-1.136v-.126h1.877v-.772H778.4v-1h-.84v1h-2.045v.772h1.751a6.232 6.232 0 0 1-2.129 1.724 2.9 2.9 0 0 1 .546.631 7.456 7.456 0 0 0 1.877-1.626v1.809h.84zm-3.488-4.487h10.646v-.922h-5.267v-1.22h-1.064v1.22h-5.295v4.318c0 2-.1 4.752-1.135 6.7a3.891 3.891 0 0 1 .827.589c1.134-2.075 1.288-5.159 1.288-7.29v-3.393zm8.937 9.407h-5.435v-1.609h5.435v1.612zm-8.46-3.631h3.151a9.97 9.97 0 0 1-3.8 2.959 5.2 5.2 0 0 1 .589.756 12.063 12.063 0 0 0 2.087-1.3v2.453h.994v-.434h5.435v.42h1.055v-3.6h-6.2a8.207 8.207 0 0 0 1.008-1.248h5.9v-.844h-10.219v.841zm21.157-7.43a6.443 6.443 0 0 1-.8.925c-.938.953-3.039 2.608-4.076 3.491-1.26 1.051-1.4 1.682-.1 2.776 1.3 1.065 3.614 3.042 4.37 3.856.3.322.673.672.953 1.009l1.009-.912c-1.359-1.346-3.922-3.476-5.183-4.486-.9-.743-.9-.953-.056-1.682 1.022-.841 3.011-2.44 3.978-3.267.224-.2.644-.561.952-.785z" transform="translate(-567 -180.156)"/></svg>