<svg xmlns="http://www.w3.org/2000/svg" xmlns:xlink="http://www.w3.org/1999/xlink" width="122" height="80" viewBox="0 0 122 80"><defs><clipPath id="a"><rect width="122" height="80" transform="translate(0 0)" fill="#e366ac"/></clipPath></defs><g transform="translate(-0.515 -0.49)"><g transform="translate(0.515 0.49)" clip-path="url(#a)"><path d="M43.774,54.338H75.138v-.661l-9.031-7.694H65.47l-5.063,7.3H42.833v0l.055-.217v-.011l0,0a32.636,32.636,0,0,0,1.053-8.673L46.8,43.239v-.395L35.611,40.56H76.449v-.624L67.76,32.314h-.576L61.863,39.5H44.716V28.548H68.574v-.586l-8.959-7.256h-.529L54.4,27.576h-9.68V17.243H75.138v-.59l-8.814-7.6h-.566l-5.111,7.13h-13.7A44.15,44.15,0,0,0,60.3,3.88S57.993,3.288,46.172.9a69.23,69.23,0,0,1-3.084,15.279h-11.5a51.215,51.215,0,0,0,6.2-6.814A82,82,0,0,0,18.162,0l-.092.222a80.591,80.591,0,0,1,8.684,15.962H2.911v1.06H33.579V27.576H9.332l0,.972H33.579V39.5H2.911v1.06H32.98A61.066,61.066,0,0,1,31.7,53.278H2.911v1.06H31.524c-1.114,5.3-3.426,10.6-10.193,16.251C14.306,76.506,5.911,80.039,0,81.982l.086.265C13.706,81.1,27.412,75.8,34.693,68.91c5.805-5.594,7.881-14.573,7.881-14.573,2.313,12.718,8.653,19.077,15.677,22.61C63.99,79.774,69.73,81.1,71.357,81.1A63.788,63.788,0,0,1,79.58,69.175C74.955,69,51.826,68.293,43.774,54.338M35.514,40.56l-.19.01c-.011,0-.02-.009-.031-.01Z" transform="translate(-0.601 -0.566)" fill="#e366ac"/><path d="M267.15,34.566V28.439H244.995v6.127h6.836V55.5h7.158V34.566Z" transform="translate(-145.001 -17.207)" fill="#e366ac"/><path d="M208.336,26.1a11.25,11.25,0,0,0-2.8-1.957,13.648,13.648,0,0,0-6.03-1.234A14.933,14.933,0,0,0,189.724,26a9.767,9.767,0,0,0-3.769,7.9,9.632,9.632,0,0,0,1.943,6.039q1.944,2.535,6.989,5.19,1.049.557,2.863,1.433,5.6,2.735,5.6,5.5a4.561,4.561,0,0,1-1.681,3.717,6.991,6.991,0,0,1-4.572,1.38,7.787,7.787,0,0,1-4.308-1.234A7.064,7.064,0,0,1,190,52.53l-4.572,5.23a10.276,10.276,0,0,0,4.7,4.434,17.112,17.112,0,0,0,7.566,1.539q6.226,0,9.918-3.252a11.044,11.044,0,0,0,3.69-8.721,9.876,9.876,0,0,0-2.351-6.477,20.284,20.284,0,0,0-7.238-5.1q-.63-.292-1.813-.8-5.938-2.548-5.938-5.627a3.954,3.954,0,0,1,1.5-3.2,6,6,0,0,1,3.941-1.235,6.741,6.741,0,0,1,3.455.836,5.543,5.543,0,0,1,1.533,1.361Z" transform="translate(-109.893 -13.968)" fill="#e366ac"/></g></g></svg>